<svg width="1824" height="536" viewBox="0 0 1824 536" fill="none" xmlns="http://www.w3.org/2000/svg">
<g clip-path="url(#clip0_52_25)">
<path d="M217.512 239H175.471L154.67 184.215H70.1484L49.4941 239H7.45312L91.6816 28.9414H133.137L217.512 239ZM141.926 150.377L112.482 72.4473L83.0391 150.377H141.926ZM319.465 239H245.783V28.9414H326.35V29.0879C340.998 29.8203 354.768 32.6035 367.365 37.584C380.109 42.5645 391.242 49.4492 400.764 58.3848C410.285 67.3203 417.756 78.0137 423.176 90.7578C428.596 103.502 431.232 117.857 431.232 133.971C431.232 150.816 428.449 165.611 422.59 178.648C416.73 191.686 408.82 202.672 398.566 211.607C388.312 220.543 376.447 227.428 362.971 232.115C349.348 236.656 334.846 239 319.465 239ZM319.465 205.162C333.527 205.162 345.979 202.525 356.965 197.252C367.951 191.979 376.594 184.068 382.893 173.521C389.191 162.975 392.268 149.791 392.268 133.971C392.268 118.297 389.045 105.113 382.746 94.5664C376.447 84.0195 367.805 75.9629 356.818 70.6895C345.832 65.416 333.381 62.7793 319.465 62.7793H284.016V205.162H319.465ZM633.381 239H585.334L540.51 181.432C537.287 181.578 533.918 181.725 530.549 181.725H500.812V239H462.58V28.9414H530.549C551.643 28.9414 569.074 32.3105 582.844 38.7559C596.76 45.3477 607.014 54.2832 613.752 65.8555C620.637 77.2812 624.006 90.4648 624.006 105.26C624.006 120.494 620.49 133.824 613.459 145.543C606.574 157.115 595.881 166.051 581.525 172.496L633.381 239ZM530.549 147.887C549.299 147.887 563.068 144.078 571.857 136.461C580.5 128.844 584.895 118.443 584.895 105.26C584.895 92.2227 580.5 81.8223 571.857 74.2051C563.068 66.5879 549.299 62.7793 530.549 62.7793H500.812V147.887H530.549ZM701.203 239H662.971V28.9414H701.203V239ZM939.68 239H897.639L876.838 184.215H792.316L771.662 239H729.621L813.85 28.9414H855.305L939.68 239ZM864.094 150.377L834.65 72.4473L805.207 150.377H864.094ZM1139.78 239H1107.11L1006.18 97.7891V239H967.951V28.9414H1001.79L1101.69 169.859V28.9414H1139.78V239Z" fill="#FFFFFF"/>
<path d="M665.1 500.783C644.445 500.783 625.695 495.949 608.703 486.135C591.857 476.467 578.381 463.576 568.273 447.17C558.166 430.91 553.186 412.893 553.186 392.971C553.186 373.195 558.166 355.031 568.273 338.771C578.381 322.512 591.857 309.475 608.703 299.807C625.695 290.139 644.445 285.305 665.1 285.305C680.92 285.305 695.715 288.381 709.191 294.826C722.668 301.271 734.533 309.621 744.787 320.168L717.395 347.414C710.803 340.676 702.893 335.549 693.811 332.033C684.729 328.518 675.207 326.76 665.1 326.76C652.502 326.76 640.93 329.396 630.236 334.67C619.543 339.943 611.047 347.561 604.455 357.375C597.863 367.336 594.641 379.201 594.641 392.971C594.641 406.887 597.863 418.605 604.455 428.566C611.047 438.381 619.543 445.998 630.236 451.271C640.93 456.545 652.502 459.182 665.1 459.182C680.188 459.182 694.104 455.373 706.555 447.463V419.338H689.123V385.5H744.787V465.041C735.705 475.734 724.133 484.377 710.07 490.969C696.008 497.414 680.92 500.783 665.1 500.783ZM864.318 500.783C838.391 500.783 818.029 494.045 802.941 480.568C786.535 465.92 778.332 443.947 778.332 414.504V287.941H816.564V414.504C816.564 426.076 818.469 435.305 822.57 442.336C826.672 449.367 832.238 454.494 839.416 457.717C846.594 460.939 854.797 462.551 864.318 462.551C873.693 462.551 882.043 460.939 889.221 457.57C904.455 450.539 912.072 436.184 912.072 414.504V287.941H950.158V414.504C950.158 443.947 941.955 465.92 925.549 480.568C910.461 494.045 890.1 500.783 864.318 500.783ZM1147.77 498H989.27V287.941H1142.2V321.779H1027.5V376.125H1122.86V409.816H1027.5V464.162H1147.77V498ZM1349.91 498H1301.87L1257.04 440.432C1253.82 440.578 1250.45 440.725 1247.08 440.725H1217.35V498H1179.11V287.941H1247.08C1268.18 287.941 1285.61 291.311 1299.38 297.756C1313.29 304.348 1323.55 313.283 1330.29 324.855C1337.17 336.281 1340.54 349.465 1340.54 364.26C1340.54 379.494 1337.02 392.824 1329.99 404.543C1323.11 416.115 1312.41 425.051 1298.06 431.496L1349.91 498ZM1247.08 406.887C1265.83 406.887 1279.6 403.078 1288.39 395.461C1297.03 387.844 1301.43 377.443 1301.43 364.26C1301.43 351.223 1297.03 340.822 1288.39 333.205C1279.6 325.588 1265.83 321.779 1247.08 321.779H1217.35V406.887H1247.08ZM1550.3 498H1502.26L1457.43 440.432C1454.21 440.578 1450.84 440.725 1447.47 440.725H1417.74V498H1379.5V287.941H1447.47C1468.57 287.941 1486 291.311 1499.77 297.756C1513.68 304.348 1523.94 313.283 1530.68 324.855C1537.56 336.281 1540.93 349.465 1540.93 364.26C1540.93 379.494 1537.41 392.824 1530.38 404.543C1523.5 416.115 1512.8 425.051 1498.45 431.496L1550.3 498ZM1447.47 406.887C1466.22 406.887 1479.99 403.078 1488.78 395.461C1497.42 387.844 1501.82 377.443 1501.82 364.26C1501.82 351.223 1497.42 340.822 1488.78 333.205C1479.99 325.588 1466.22 321.779 1447.47 321.779H1417.74V406.887H1447.47ZM1776.33 498H1734.29L1713.49 443.215H1628.97L1608.31 498H1566.27L1650.5 287.941H1691.96L1776.33 498ZM1700.74 409.377L1671.3 331.447L1641.86 409.377H1700.74Z" fill="#FFFFFF"/>
</g>
<defs>
<clipPath id="clip0_52_25">
<rect width="1824" height="536" fill="white"/>
</clipPath>
</defs>
</svg>
