<svg width="1322" height="500" viewBox="0 0 1322 500" fill="none" xmlns="http://www.w3.org/2000/svg">
<g clip-path="url(#clip0_1_2)">
<path d="M196.008 201H167.98L154.113 164.477H97.7656L83.9961 201H55.9688L112.121 60.9609H139.758L196.008 201ZM145.617 141.918L125.988 89.9648L106.359 141.918H145.617ZM263.977 201H214.855V60.9609H268.566V61.0586C278.332 61.5469 287.512 63.4023 295.91 66.7227C304.406 70.043 311.828 74.6328 318.176 80.5898C324.523 86.5469 329.504 93.6758 333.117 102.172C336.73 110.668 338.488 120.238 338.488 130.98C338.488 142.211 336.633 152.074 332.727 160.766C328.82 169.457 323.547 176.781 316.711 182.738C309.875 188.695 301.965 193.285 292.98 196.41C283.898 199.438 274.23 201 263.977 201ZM263.977 178.441C273.352 178.441 281.652 176.684 288.977 173.168C296.301 169.652 302.062 164.379 306.262 157.348C310.461 150.316 312.512 141.527 312.512 130.98C312.512 120.531 310.363 111.742 306.164 104.711C301.965 97.6797 296.203 92.3086 288.879 88.793C281.555 85.2773 273.254 83.5195 263.977 83.5195H240.344V178.441H263.977ZM473.254 201H441.223L411.34 162.621C409.191 162.719 406.945 162.816 404.699 162.816H384.875V201H359.387V60.9609H404.699C418.762 60.9609 430.383 63.207 439.562 67.5039C448.84 71.8984 455.676 77.8555 460.168 85.5703C464.758 93.1875 467.004 101.977 467.004 111.84C467.004 121.996 464.66 130.883 459.973 138.695C455.383 146.41 448.254 152.367 438.684 156.664L473.254 201ZM404.699 140.258C417.199 140.258 426.379 137.719 432.238 132.641C438 127.562 440.93 120.629 440.93 111.84C440.93 103.148 438 96.2148 432.238 91.1367C426.379 86.0586 417.199 83.5195 404.699 83.5195H384.875V140.258H404.699ZM518.469 201H492.98V60.9609H518.469V201ZM677.453 201H649.426L635.559 164.477H579.211L565.441 201H537.414L593.566 60.9609H621.203L677.453 201ZM627.062 141.918L607.434 89.9648L587.805 141.918H627.062ZM810.852 201H789.074L721.789 106.859V201H696.301V60.9609H718.859L785.461 154.906V60.9609H810.852V201Z" fill="#110E38"/>
<path d="M520.066 421.855C506.297 421.855 493.797 418.633 482.469 412.09C471.238 405.645 462.254 397.051 455.516 386.113C448.777 375.273 445.457 363.262 445.457 349.98C445.457 336.797 448.777 324.688 455.516 313.848C462.254 303.008 471.238 294.316 482.469 287.871C493.797 281.426 506.297 278.203 520.066 278.203C530.613 278.203 540.477 280.254 549.461 284.551C558.445 288.848 566.355 294.414 573.191 301.445L554.93 319.609C550.535 315.117 545.262 311.699 539.207 309.355C533.152 307.012 526.805 305.84 520.066 305.84C511.668 305.84 503.953 307.598 496.824 311.113C489.695 314.629 484.031 319.707 479.637 326.25C475.242 332.891 473.094 340.801 473.094 349.98C473.094 359.258 475.242 367.07 479.637 373.711C484.031 380.254 489.695 385.332 496.824 388.848C503.953 392.363 511.668 394.121 520.066 394.121C530.125 394.121 539.402 391.582 547.703 386.309V367.559H536.082V345H573.191V398.027C567.137 405.156 559.422 410.918 550.047 415.312C540.672 419.609 530.613 421.855 520.066 421.855ZM652.879 421.855C635.594 421.855 622.02 417.363 611.961 408.379C601.023 398.613 595.555 383.965 595.555 364.336V279.961H621.043V364.336C621.043 372.051 622.312 378.203 625.047 382.891C627.781 387.578 631.492 390.996 636.277 393.145C641.062 395.293 646.531 396.367 652.879 396.367C659.129 396.367 664.695 395.293 669.48 393.047C679.637 388.359 684.715 378.789 684.715 364.336V279.961H710.105V364.336C710.105 383.965 704.637 398.613 693.699 408.379C683.641 417.363 670.066 421.855 652.879 421.855ZM841.844 420H736.18V279.961H838.133V302.52H761.668V338.75H825.242V361.211H761.668V397.441H841.844V420ZM976.609 420H944.578L914.695 381.621C912.547 381.719 910.301 381.816 908.055 381.816H888.23V420H862.742V279.961H908.055C922.117 279.961 933.738 282.207 942.918 286.504C952.195 290.898 959.031 296.855 963.523 304.57C968.113 312.188 970.359 320.977 970.359 330.84C970.359 340.996 968.016 349.883 963.328 357.695C958.738 365.41 951.609 371.367 942.039 375.664L976.609 420ZM908.055 359.258C920.555 359.258 929.734 356.719 935.594 351.641C941.355 346.562 944.285 339.629 944.285 330.84C944.285 322.148 941.355 315.215 935.594 310.137C929.734 305.059 920.555 302.52 908.055 302.52H888.23V359.258H908.055ZM1110.2 420H1078.17L1048.29 381.621C1046.14 381.719 1043.89 381.816 1041.65 381.816H1021.82V420H996.336V279.961H1041.65C1055.71 279.961 1067.33 282.207 1076.51 286.504C1085.79 290.898 1092.62 296.855 1097.12 304.57C1101.71 312.188 1103.95 320.977 1103.95 330.84C1103.95 340.996 1101.61 349.883 1096.92 357.695C1092.33 365.41 1085.2 371.367 1075.63 375.664L1110.2 420ZM1041.65 359.258C1054.15 359.258 1063.33 356.719 1069.19 351.641C1074.95 346.562 1077.88 339.629 1077.88 330.84C1077.88 322.148 1074.95 315.215 1069.19 310.137C1063.33 305.059 1054.15 302.52 1041.65 302.52H1021.82V359.258H1041.65ZM1260.89 420H1232.86L1218.99 383.477H1162.64L1148.88 420H1120.85L1177 279.961H1204.64L1260.89 420ZM1210.5 360.918L1190.87 308.965L1171.24 360.918H1210.5Z" fill="#110E38"/>
</g>
<defs>
<clipPath id="clip0_1_2">
<rect width="1322" height="500" fill="white"/>
</clipPath>
</defs>
</svg>
