<svg width="500" height="500" viewBox="0 0 500 500" fill="none" xmlns="http://www.w3.org/2000/svg">
<g clip-path="url(#clip0_1_2)">
<path d="M251.074 326H223.047L209.18 289.477H152.832L139.062 326H111.035L167.188 185.961H194.824L251.074 326ZM200.684 266.918L181.055 214.965L161.426 266.918H200.684ZM330.371 327.855C316.602 327.855 304.102 324.633 292.773 318.09C281.543 311.645 272.559 303.051 265.82 292.113C259.082 281.273 255.762 269.262 255.762 255.98C255.762 242.797 259.082 230.688 265.82 219.848C272.559 209.008 281.543 200.316 292.773 193.871C304.102 187.426 316.602 184.203 330.371 184.203C340.918 184.203 350.781 186.254 359.766 190.551C368.75 194.848 376.66 200.414 383.496 207.445L365.234 225.609C360.84 221.117 355.566 217.699 349.512 215.355C343.457 213.012 337.109 211.84 330.371 211.84C321.973 211.84 314.258 213.598 307.129 217.113C300 220.629 294.336 225.707 289.941 232.25C285.547 238.891 283.398 246.801 283.398 255.98C283.398 265.258 285.547 273.07 289.941 279.711C294.336 286.254 300 291.332 307.129 294.848C314.258 298.363 321.973 300.121 330.371 300.121C340.43 300.121 349.707 297.582 358.008 292.309V273.559H346.387V251H383.496V304.027C377.441 311.156 369.727 316.918 360.352 321.312C350.977 325.609 340.918 327.855 330.371 327.855Z" fill="#110E38"/>
</g>
<defs>
<clipPath id="clip0_1_2">
<rect width="500" height="500" fill="white"/>
</clipPath>
</defs>
</svg>
